<svg width="134" height="32" viewBox="0 0 134 32" fill="none" xmlns="http://www.w3.org/2000/svg">
<g clip-path="url(#clip0_187_7985)">
<path d="M39.9618 27.7636V5.31582H43.8114V24.7546H53.8412V27.7731L39.9618 27.7636Z" fill="#111111"/>
<path d="M61.545 28.1457C60.3814 28.1801 59.229 27.9101 58.2018 27.3624C57.2552 26.8139 56.5088 25.9771 56.0716 24.9743C55.5452 23.7443 55.2926 22.4144 55.3313 21.077V11.5964H59.2239V20.671C59.2239 22.0593 59.5184 23.1132 60.1074 23.8328C60.4416 24.2055 60.8572 24.4963 61.3218 24.6827C61.7864 24.869 62.2877 24.9459 62.7868 24.9075C63.4969 24.9172 64.1954 24.7269 64.8024 24.3582C65.4166 23.9776 65.9127 23.4335 66.2352 22.7869C66.6133 22.0032 66.7952 21.1394 66.7653 20.2698V11.5964H70.6149V27.7636H67.2143L66.9277 25.0651C66.4598 26.0026 65.7298 26.784 64.8262 27.3146C63.8286 27.8853 62.6941 28.1727 61.545 28.1457Z" fill="#111111"/>
<path d="M73.0317 27.7636V11.5964H76.418L76.6711 13.7743C77.1897 12.983 77.9015 12.337 78.7392 11.8973C79.6232 11.4356 80.6076 11.1993 81.6049 11.2095C82.3589 11.1995 83.1099 11.3075 83.8305 11.5295C84.4744 11.7334 85.0699 12.0664 85.5807 12.5082C86.0915 12.95 86.5068 13.4913 86.8013 14.0991C87.3746 13.2052 88.1693 12.4748 89.1082 11.9785C90.087 11.4634 91.1783 11.1992 92.2843 11.2095C93.4811 11.1725 94.6663 11.4544 95.7183 12.0263C96.664 12.5758 97.4101 13.4123 97.8485 14.4143C98.3634 15.6473 98.6093 16.976 98.5697 18.3116V27.7636H94.7488V18.689C94.7488 17.3198 94.4717 16.2722 93.9177 15.5463C93.6289 15.1811 93.2562 14.891 92.8313 14.7006C92.4064 14.5102 91.9419 14.4251 91.4771 14.4525C90.7838 14.4377 90.1025 14.6343 89.5237 15.0161C88.9419 15.4162 88.485 15.9725 88.2055 16.6209C87.864 17.4266 87.7011 18.2967 87.7279 19.1713V27.7684H83.8783V18.6937C83.8783 17.3246 83.6013 16.277 83.0473 15.551C82.7434 15.1786 82.3542 14.8847 81.9128 14.6943C81.4714 14.504 80.9906 14.4227 80.5111 14.4573C79.8316 14.4449 79.1647 14.6416 78.6007 15.0209C78.0233 15.4208 77.5725 15.9777 77.3016 16.6257C76.9645 17.4327 76.8018 18.3018 76.824 19.1761V27.7731L73.0317 27.7636Z" fill="#111111"/>
<path d="M108.346 28.1457C106.869 28.1755 105.41 27.8112 104.119 27.0901C102.905 26.3961 101.912 25.3729 101.254 24.1385C100.55 22.7929 100.197 21.2915 100.227 19.7731C100.199 18.2261 100.552 16.6959 101.254 15.317C101.904 14.0601 102.898 13.0135 104.119 12.2985C105.427 11.5515 106.913 11.1751 108.418 11.2096C109.864 11.174 111.291 11.5411 112.54 12.2699C113.683 12.9523 114.624 13.9265 115.267 15.0925C115.919 16.3271 116.243 17.7086 116.208 19.1045V19.797C116.205 20.0705 116.182 20.3434 116.141 20.6137H102.992V18.1493H112.325C112.327 17.6321 112.222 17.12 112.018 16.6451C111.813 16.1701 111.513 15.7424 111.136 15.3887C110.374 14.6984 109.374 14.3304 108.346 14.3618C107.586 14.3538 106.836 14.5413 106.168 14.9063C105.496 15.282 104.948 15.8466 104.592 16.5301C104.183 17.3725 103.986 18.3023 104.019 19.2382V20.1934C104.006 21.0775 104.204 21.9519 104.597 22.7439C104.939 23.4258 105.468 23.9971 106.121 24.3916C106.79 24.7851 107.556 24.9851 108.332 24.9696C109.116 25.0017 109.892 24.8006 110.562 24.3916C111.131 24.033 111.574 23.5076 111.833 22.8872H115.745C115.48 23.8791 114.99 24.7962 114.312 25.5666C113.609 26.3792 112.739 27.0308 111.761 27.477C110.685 27.9441 109.52 28.1722 108.346 28.1457Z" fill="#111111"/>
<path d="M125.349 28.1457C123.895 28.1676 122.461 27.8034 121.194 27.0901C119.968 26.3886 118.966 25.3535 118.304 24.1051C117.594 22.7511 117.236 21.2399 117.263 19.711C117.23 18.1579 117.595 16.6222 118.324 15.2501C118.993 14.0044 120 12.9717 121.227 12.2699C122.499 11.5742 123.924 11.2096 125.373 11.2096C126.822 11.2096 128.248 11.5742 129.519 12.2699C130.738 12.9769 131.742 14.0021 132.423 15.2358C133.16 16.5983 133.53 18.1289 133.497 19.6776C133.526 21.2237 133.149 22.7502 132.404 24.1051C131.719 25.3459 130.71 26.3776 129.485 27.0901C128.226 27.8046 126.797 28.169 125.349 28.1457ZM125.349 24.8406C126.091 24.8489 126.819 24.6433 127.446 24.2484C128.108 23.8196 128.638 23.2141 128.974 22.5003C129.381 21.6163 129.577 20.6501 129.547 19.6776C129.579 18.6925 129.388 17.7129 128.989 16.8119C128.664 16.1013 128.14 15.5005 127.479 15.083C126.858 14.6993 126.141 14.499 125.411 14.5051C124.666 14.4977 123.934 14.6978 123.296 15.083C122.624 15.497 122.088 16.0978 121.753 16.8119C121.344 17.7103 121.148 18.691 121.18 19.6776C121.15 20.6501 121.346 21.6163 121.753 22.5003C122.089 23.2126 122.617 23.8177 123.276 24.2484C123.897 24.639 124.616 24.8429 125.349 24.8358V24.8406Z" fill="#111111"/>
<path d="M7.99049 23.8042C5.08661 26.3164 2.10154 25.6143 0.687805 24.6782C1.23961 26.1676 2.10648 27.5203 3.22917 28.6438C4.35187 29.7673 5.70391 30.6352 7.19288 31.1881C5.25378 27.9403 7.99049 23.8042 7.99049 23.8042Z" fill="#111111"/>
<path d="M3.20955 1.56179L0 20.1361C0.000772772 20.8147 0.202594 21.4779 0.579982 22.0419C0.957371 22.6059 1.49341 23.0455 2.12041 23.3051C2.74742 23.5646 3.43728 23.6326 4.1029 23.5005C4.76852 23.3683 5.38006 23.0419 5.8603 22.5624L22.7773 2.43582C22.9745 2.23467 23.108 1.97988 23.1612 1.70327C23.2143 1.42667 23.1848 1.14054 23.0762 0.880629C22.9677 0.620721 22.7849 0.398571 22.5508 0.241945C22.3167 0.0853189 22.0417 0.00116453 21.76 0L4.62806 0.133731C4.25136 0.137496 3.8913 0.289462 3.62582 0.556733C3.36034 0.824004 3.21079 1.18508 3.20955 1.56179Z" fill="#111111"/>
<path d="M31.871 27.1331V10.1301C31.868 9.8493 31.7825 9.57553 31.6252 9.34287C31.4678 9.11022 31.2456 8.92893 30.986 8.82156C30.7265 8.71418 30.4411 8.68545 30.1654 8.73894C29.8897 8.79242 29.6358 8.92576 29.4352 9.12239L9.33729 26.0155C8.85565 26.4966 8.52807 27.11 8.39626 27.7779C8.26446 28.4457 8.33438 29.1376 8.59714 29.7656C8.8599 30.3936 9.3036 30.9291 9.87174 31.304C10.4399 31.679 11.1068 31.8764 11.7874 31.871L30.4525 28.5564C30.8284 28.5527 31.1877 28.4014 31.4531 28.1351C31.7184 27.8689 31.8685 27.509 31.871 27.1331Z" fill="#111111"/>
</g>
<defs>
<clipPath id="clip0_187_7985">
<rect width="133.731" height="32" fill="white"/>
</clipPath>
</defs>
</svg>
