<svg width="32" height="32" viewBox="0 0 32 32" fill="none" xmlns="http://www.w3.org/2000/svg">
<path d="M8.02282 23.9005C5.10719 26.4229 2.11003 25.718 0.690582 24.7781C1.24462 26.2735 2.115 27.6316 3.24223 28.7597C4.36947 29.8878 5.72698 30.7591 7.22198 31.3143C5.27503 28.0534 8.02282 23.9005 8.02282 23.9005Z" fill="#111111"/>
<path d="M3.22254 1.56811L0 20.2176C0.000775899 20.899 0.203414 21.5648 0.582329 22.1311C0.961245 22.6974 1.49945 23.1387 2.12899 23.3994C2.75853 23.66 3.45119 23.7283 4.1195 23.5956C4.78782 23.4629 5.40183 23.1351 5.88401 22.6537L22.8695 2.44568C23.0675 2.24372 23.2015 1.98789 23.2549 1.71017C23.3083 1.43245 23.2786 1.14515 23.1696 0.884192C23.0606 0.623233 22.8771 0.400184 22.6421 0.242924C22.407 0.0856642 22.1309 0.00116925 21.8481 0L4.64679 0.134273C4.26857 0.138053 3.90705 0.290634 3.64049 0.558986C3.37393 0.827339 3.22378 1.18987 3.22254 1.56811Z" fill="#111111"/>
<path d="M32 27.2429V10.1712C31.997 9.88916 31.9111 9.61429 31.7531 9.38069C31.5952 9.14709 31.372 8.96508 31.1114 8.85727C30.8509 8.74946 30.5643 8.72061 30.2875 8.77431C30.0106 8.82801 29.7557 8.96189 29.5543 9.15931L9.37508 26.1208C8.89149 26.6038 8.56258 27.2198 8.43024 27.8903C8.2979 28.5608 8.36811 29.2556 8.63193 29.8861C8.89575 30.5166 9.34124 31.0543 9.91168 31.4307C10.4821 31.8072 11.1517 32.0054 11.8351 32L30.5757 28.672C30.9531 28.6682 31.3139 28.5163 31.5804 28.249C31.8468 27.9817 31.9975 27.6204 32 27.2429Z" fill="#111111"/>
</svg>
